<?xml version="1.0" encoding="utf-8"?>
<!-- Generator: Adobe Illustrator 25.0.1, SVG Export Plug-In . SVG Version: 6.00 Build 0)  -->
<svg version="1.1" id="Layer_1" xmlns="http://www.w3.org/2000/svg" xmlns:xlink="http://www.w3.org/1999/xlink" x="0px" y="0px"
	 viewBox="0 0 365 365" style="enable-background:new 0 0 365 365;" xml:space="preserve">
<path d="M345.1,182.6c0-27-6.7-53.7-19.6-77.5c-12.9-23.8-31.5-44-54.1-58.8c-22.7-14.8-48.6-23.7-75.6-25.9
	c-27-2.2-54,2.4-78.8,13.3C92.2,44.6,70.5,61.5,54,82.9c-16.6,21.4-27.5,46.6-31.9,73.2c-4.4,26.7-2,54,6.9,79.6
	c8.9,25.5,24,48.5,44,66.7c0.5,0.6,1.2,1.2,1.9,1.7c29.7,26.4,68,40.9,107.7,40.9c39.7,0,78-14.6,107.7-40.9c0.7-0.5,1.3-1,1.9-1.7
	c16.7-15.2,30-33.7,39.1-54.4C340.4,227.5,345.1,205.1,345.1,182.6z M39.1,182.6c0-23.4,5.7-46.5,16.6-67.2
	C66.6,94.7,82.5,77,101.8,63.9c19.4-13.2,41.7-21.4,64.9-23.9c23.3-2.6,46.8,0.6,68.6,9.2c21.8,8.6,41.1,22.4,56.3,40.3
	c15.2,17.8,25.8,39.1,30.9,61.9c5.1,22.8,4.5,46.6-1.7,69.2c-6.2,22.6-17.8,43.3-33.9,60.3c-15-23.4-37.5-41-63.8-50
	c13.1-8.7,23-21.4,28.3-36.2c5.3-14.8,5.7-30.9,1.2-46c-4.6-15.1-13.8-28.2-26.5-37.6c-12.6-9.4-28-14.4-43.7-14.4
	c-15.7,0-31.1,5.1-43.7,14.4s-21.9,22.6-26.5,37.6c-4.6,15.1-4.2,31.2,1.2,46c5.3,14.8,15.3,27.5,28.3,36.2
	c-26.3,9-48.7,26.7-63.8,50C53,254.2,39,219.1,39.1,182.6z M128.3,169.8c0-10.7,3.2-21.2,9.1-30.1c6-8.9,14.4-15.9,24.3-20
	c9.9-4.1,20.8-5.2,31.3-3.1c10.5,2.1,20.2,7.2,27.7,14.8c7.6,7.6,12.7,17.2,14.8,27.7c2.1,10.5,1,21.4-3.1,31.3
	c-4.1,9.9-11,18.4-20,24.3c-8.9,6-19.4,9.1-30.1,9.1c-14.4,0-28.1-5.7-38.3-15.9C134,197.9,128.3,184.2,128.3,169.8z M92.4,294
	c9.4-15.5,22.6-28.4,38.4-37.3c15.8-8.9,33.6-13.6,51.8-13.6c18.1,0,36,4.7,51.8,13.6c15.8,8.9,29,21.8,38.4,37.3
	c-25.5,20.7-57.3,31.9-90.1,31.9C149.7,326,117.9,314.7,92.4,294z"/>
</svg>
