<?xml version="1.0" encoding="utf-8"?>
<!-- Generator: Adobe Illustrator 25.0.1, SVG Export Plug-In . SVG Version: 6.00 Build 0)  -->
<svg version="1.1" id="Layer_1" xmlns="http://www.w3.org/2000/svg" xmlns:xlink="http://www.w3.org/1999/xlink" x="0px" y="0px"
	 viewBox="0 0 365 365" style="enable-background:new 0 0 365 365;" xml:space="preserve">
<style type="text/css">
	.st0{fill:#9799A5;}
	.st1{fill:#FFFFFF;}
</style>
<circle class="st0" cx="182.5" cy="182.5" r="182.5"/>
<path class="st1" d="M106.9,123.6l36.2,31.8l32.2-39.7c0.9-1.1,2-2,3.3-2.6c1.3-0.6,2.7-0.9,4.1-0.9c1.4,0,2.8,0.4,4.1,1
	c1.3,0.6,2.4,1.6,3.3,2.7l30.7,39.5l37.3-32.3c1.5-1.3,3.3-2.1,5.2-2.3c1.9-0.2,3.9,0.2,5.6,1.1c1.7,0.9,3.1,2.4,3.9,4.1
	c0.9,1.7,1.2,3.7,0.9,5.6l-4.8,98.4h-173l-4.9-97.9c-0.3-1.9,0-3.9,0.9-5.6c0.9-1.7,2.3-3.2,4-4.1c1.7-0.9,3.7-1.3,5.6-1.1
	C103.6,121.5,105.5,122.3,106.9,123.6z"/>
</svg>
